<svg width="93" height="93" viewBox="0 0 93 93" fill="none" xmlns="http://www.w3.org/2000/svg">
<rect width="93" height="93" rx="46.5" fill="#FFFDF3"/>
<path d="M65.2555 22.5084C65.7019 22.4041 66.1677 22.6182 66.3763 23.0353L67.1821 24.6449H67.1807C68.7709 27.7446 69.7069 31.2061 69.6218 34.697C69.6132 35.0507 69.4188 35.3691 69.1177 35.5408L68.9824 35.6057C60.6315 38.8303 51.5298 38.9965 43.0908 36.018L43.0846 36.0159C37.6614 34.0576 31.8001 33.8509 26.4986 35.2515L25.9876 35.3924C25.7258 35.4672 25.4447 35.432 25.2094 35.295C24.9741 35.1578 24.8045 34.9306 24.7405 34.6659C24.2038 32.4424 23.4398 30.2907 22.5232 28.2861C22.2818 27.9785 22.1109 27.5932 22.0267 27.3407C21.8694 26.8686 22.0837 26.3528 22.5288 26.1302L24.1377 25.3251L24.6459 25.0792C29.9112 22.6044 35.9396 22.1857 41.5026 24.1491L41.5095 24.1519L42.2186 24.3984C49.528 26.8325 57.2973 26.3087 64.2142 23.0346C64.5228 22.7905 64.9123 22.6186 65.1665 22.5339L65.2555 22.5084Z" fill="#6750A4" stroke="#6750A4" stroke-width="2" stroke-linejoin="round"/>
<path d="M66.3481 57.7485C66.8452 57.6978 67.3115 58.0257 67.4239 58.5233C67.9738 60.9582 68.7511 63.2771 69.8988 65.343L69.9437 65.4334C70.0371 65.6508 70.0502 65.8958 69.9796 66.124C69.909 66.3519 69.7601 66.5463 69.5605 66.6729L69.4721 66.7227L67.8617 67.5278C62.542 70.3083 56.2223 70.7236 50.4976 68.7031L50.4914 68.701C42.9766 65.9895 34.9255 66.4373 27.7838 69.8183C27.4756 70.0617 27.0882 70.2343 26.8344 70.319C26.3622 70.4763 25.8457 70.2627 25.6232 69.8176L24.818 68.2073L24.8187 68.2066C23.4812 65.6068 22.6561 62.7812 22.4191 59.9333L22.379 59.363C22.3576 58.9776 22.5609 58.6141 22.8997 58.4293L24.6702 57.464L24.7013 57.4467C30.7324 54.4311 37.7792 53.9228 44.0846 56.1927C51.3973 58.7867 58.9393 59.2575 66.248 57.7644L66.3481 57.7485Z" fill="#6750A4" stroke="#6750A4" stroke-width="2" stroke-linejoin="round"/>
<path d="M23.3846 54.3077C23.3846 54.3077 38.835 48.8416 45.839 51.3373C52.2794 53.5914 59.1224 53.9939 65.5628 52.5448C65.4823 48.9221 67.3273 43.0807 68.6154 39.5385C60.1623 42.0341 49.7033 44.0918 41.2502 41.1131C36.4199 39.3419 31.1065 39.3419 26.2761 40.9521C26.3567 44.4138 25.7126 47.956 24.505 51.4177L23.3846 54.3077Z" fill="#6750A4" stroke="#6750A4" stroke-width="2" stroke-linejoin="round"/>
</svg>
